<svg width="282" height="290" viewBox="0 0 282 290" fill="none" xmlns="http://www.w3.org/2000/svg">
<path d="M0.0234375 133.594C0.0234375 127.839 4.68827 123.174 10.4426 123.174H271.58C277.334 123.174 281.999 127.839 281.999 133.594V279.404C281.999 285.158 277.334 289.823 271.58 289.823H10.4426C4.68828 289.823 0.0234375 285.158 0.0234375 279.404V133.594Z" fill="#EAF3FB"/>
<path d="M33.5549 169.803H35.4869C35.6949 169.803 35.8669 169.855 36.0029 169.959C36.1389 170.063 36.2309 170.195 36.2789 170.355L39.8309 182.307C39.8949 182.523 39.9509 182.755 39.9989 183.003C40.0549 183.251 40.1069 183.511 40.1549 183.783C40.2109 183.511 40.2669 183.251 40.3229 183.003C40.3789 182.747 40.4429 182.515 40.5149 182.307L44.5589 170.355C44.6069 170.219 44.6989 170.095 44.8349 169.983C44.9789 169.863 45.1509 169.803 45.3509 169.803H46.0229C46.2309 169.803 46.3989 169.855 46.5269 169.959C46.6629 170.063 46.7589 170.195 46.8149 170.355L50.8349 182.307C50.9789 182.723 51.1069 183.199 51.2189 183.735C51.2669 183.471 51.3109 183.219 51.3509 182.979C51.3909 182.739 51.4429 182.515 51.5069 182.307L55.0709 170.355C55.1109 170.211 55.1989 170.083 55.3349 169.971C55.4789 169.859 55.6509 169.803 55.8509 169.803H57.6629L52.2989 186.999H50.2109L45.8549 173.883C45.7669 173.635 45.6869 173.347 45.6149 173.019C45.5749 173.179 45.5349 173.335 45.4949 173.487C45.4629 173.631 45.4269 173.763 45.3869 173.883L41.0069 186.999H38.9189L33.5549 169.803ZM64.0212 174.651C64.7492 174.651 65.4212 174.775 66.0372 175.023C66.6532 175.263 67.1852 175.615 67.6332 176.079C68.0812 176.535 68.4292 177.103 68.6772 177.783C68.9332 178.455 69.0612 179.223 69.0612 180.087C69.0612 180.423 69.0252 180.647 68.9532 180.759C68.8812 180.871 68.7452 180.927 68.5452 180.927H60.4572C60.4732 181.695 60.5772 182.363 60.7692 182.931C60.9612 183.499 61.2252 183.975 61.5612 184.359C61.8972 184.735 62.2972 185.019 62.7612 185.211C63.2252 185.395 63.7452 185.487 64.3212 185.487C64.8572 185.487 65.3172 185.427 65.7012 185.307C66.0932 185.179 66.4292 185.043 66.7092 184.899C66.9892 184.755 67.2212 184.623 67.4052 184.503C67.5972 184.375 67.7612 184.311 67.8972 184.311C68.0732 184.311 68.2092 184.379 68.3052 184.515L68.9052 185.295C68.6412 185.615 68.3252 185.895 67.9572 186.135C67.5892 186.367 67.1932 186.559 66.7692 186.711C66.3532 186.863 65.9212 186.975 65.4732 187.047C65.0252 187.127 64.5812 187.167 64.1412 187.167C63.3012 187.167 62.5252 187.027 61.8132 186.747C61.1092 186.459 60.4972 186.043 59.9772 185.499C59.4652 184.947 59.0652 184.267 58.7772 183.459C58.4892 182.651 58.3452 181.723 58.3452 180.675C58.3452 179.827 58.4732 179.035 58.7292 178.299C58.9932 177.563 59.3692 176.927 59.8572 176.391C60.3452 175.847 60.9412 175.423 61.6452 175.119C62.3492 174.807 63.1412 174.651 64.0212 174.651ZM64.0692 176.223C63.0372 176.223 62.2252 176.523 61.6332 177.123C61.0412 177.715 60.6732 178.539 60.5292 179.595H67.1412C67.1412 179.099 67.0732 178.647 66.9372 178.239C66.8012 177.823 66.6012 177.467 66.3372 177.171C66.0732 176.867 65.7492 176.635 65.3652 176.475C64.9892 176.307 64.5572 176.223 64.0692 176.223ZM76.4357 186.999V169.323H78.5717V176.475C79.0917 175.923 79.6677 175.483 80.2997 175.155C80.9317 174.819 81.6597 174.651 82.4837 174.651C83.1477 174.651 83.7317 174.763 84.2357 174.987C84.7477 175.203 85.1717 175.515 85.5077 175.923C85.8517 176.323 86.1117 176.807 86.2877 177.375C86.4637 177.943 86.5517 178.571 86.5517 179.259V186.999H84.4157V179.259C84.4157 178.339 84.2037 177.627 83.7797 177.123C83.3637 176.611 82.7237 176.355 81.8597 176.355C81.2277 176.355 80.6357 176.507 80.0837 176.811C79.5397 177.115 79.0357 177.527 78.5717 178.047V186.999H76.4357ZM98.6997 186.999H97.7517C97.5437 186.999 97.3757 186.967 97.2477 186.903C97.1197 186.839 97.0357 186.703 96.9957 186.495L96.7557 185.367C96.4357 185.655 96.1237 185.915 95.8197 186.147C95.5157 186.371 95.1957 186.563 94.8597 186.723C94.5237 186.875 94.1637 186.991 93.7797 187.071C93.4037 187.151 92.9837 187.191 92.5197 187.191C92.0477 187.191 91.6037 187.127 91.1877 186.999C90.7797 186.863 90.4237 186.663 90.1197 186.399C89.8157 186.135 89.5717 185.803 89.3877 185.403C89.2117 184.995 89.1237 184.515 89.1237 183.963C89.1237 183.483 89.2557 183.023 89.5197 182.583C89.7837 182.135 90.2077 181.739 90.7917 181.395C91.3837 181.051 92.1557 180.771 93.1077 180.555C94.0597 180.331 95.2237 180.203 96.5997 180.171V179.223C96.5997 178.279 96.3957 177.567 95.9877 177.087C95.5877 176.599 94.9917 176.355 94.1997 176.355C93.6797 176.355 93.2397 176.423 92.8797 176.559C92.5277 176.687 92.2197 176.835 91.9557 177.003C91.6997 177.163 91.4757 177.311 91.2837 177.447C91.0997 177.575 90.9157 177.639 90.7317 177.639C90.5877 177.639 90.4597 177.603 90.3477 177.531C90.2437 177.451 90.1597 177.355 90.0957 177.243L89.7117 176.559C90.3837 175.911 91.1077 175.427 91.8837 175.107C92.6597 174.787 93.5197 174.627 94.4637 174.627C95.1437 174.627 95.7477 174.739 96.2757 174.963C96.8037 175.187 97.2477 175.499 97.6077 175.899C97.9677 176.299 98.2397 176.783 98.4237 177.351C98.6077 177.919 98.6997 178.543 98.6997 179.223V186.999ZM93.1557 185.691C93.5317 185.691 93.8757 185.655 94.1877 185.583C94.4997 185.503 94.7917 185.395 95.0637 185.259C95.3437 185.115 95.6077 184.943 95.8557 184.743C96.1117 184.543 96.3597 184.315 96.5997 184.059V181.527C95.6157 181.559 94.7797 181.639 94.0917 181.767C93.4037 181.887 92.8437 182.047 92.4117 182.247C91.9797 182.447 91.6637 182.683 91.4637 182.955C91.2717 183.227 91.1757 183.531 91.1757 183.867C91.1757 184.187 91.2277 184.463 91.3317 184.695C91.4357 184.927 91.5757 185.119 91.7517 185.271C91.9277 185.415 92.1357 185.523 92.3757 185.595C92.6157 185.659 92.8757 185.691 93.1557 185.691ZM100.025 174.843H101.777C101.945 174.843 102.085 174.887 102.197 174.975C102.309 175.063 102.389 175.167 102.437 175.287L105.521 183.111C105.633 183.399 105.721 183.687 105.785 183.975C105.849 184.263 105.909 184.547 105.965 184.827C106.029 184.547 106.097 184.263 106.169 183.975C106.241 183.687 106.333 183.399 106.445 183.111L109.565 175.287C109.613 175.159 109.689 175.055 109.793 174.975C109.905 174.887 110.041 174.843 110.201 174.843H111.869L106.913 186.999H104.981L100.025 174.843ZM118.349 174.651C119.077 174.651 119.749 174.775 120.365 175.023C120.981 175.263 121.513 175.615 121.961 176.079C122.409 176.535 122.757 177.103 123.005 177.783C123.261 178.455 123.389 179.223 123.389 180.087C123.389 180.423 123.353 180.647 123.281 180.759C123.209 180.871 123.073 180.927 122.873 180.927H114.785C114.801 181.695 114.905 182.363 115.097 182.931C115.289 183.499 115.553 183.975 115.889 184.359C116.225 184.735 116.625 185.019 117.089 185.211C117.553 185.395 118.073 185.487 118.649 185.487C119.185 185.487 119.645 185.427 120.029 185.307C120.421 185.179 120.757 185.043 121.037 184.899C121.317 184.755 121.549 184.623 121.733 184.503C121.925 184.375 122.089 184.311 122.225 184.311C122.401 184.311 122.537 184.379 122.633 184.515L123.233 185.295C122.969 185.615 122.653 185.895 122.285 186.135C121.917 186.367 121.521 186.559 121.097 186.711C120.681 186.863 120.249 186.975 119.801 187.047C119.353 187.127 118.909 187.167 118.469 187.167C117.629 187.167 116.853 187.027 116.141 186.747C115.437 186.459 114.825 186.043 114.305 185.499C113.793 184.947 113.393 184.267 113.105 183.459C112.817 182.651 112.673 181.723 112.673 180.675C112.673 179.827 112.801 179.035 113.057 178.299C113.321 177.563 113.697 176.927 114.185 176.391C114.673 175.847 115.269 175.423 115.973 175.119C116.677 174.807 117.469 174.651 118.349 174.651ZM118.397 176.223C117.365 176.223 116.553 176.523 115.961 177.123C115.369 177.715 115.001 178.539 114.857 179.595H121.469C121.469 179.099 121.401 178.647 121.265 178.239C121.129 177.823 120.929 177.467 120.665 177.171C120.401 176.867 120.077 176.635 119.693 176.475C119.317 176.307 118.885 176.223 118.397 176.223ZM130.764 186.999V174.843H132.036C132.34 174.843 132.532 174.991 132.612 175.287L132.768 176.535C133.216 175.983 133.716 175.531 134.268 175.179C134.828 174.827 135.476 174.651 136.212 174.651C137.036 174.651 137.7 174.879 138.204 175.335C138.716 175.791 139.084 176.407 139.308 177.183C139.476 176.743 139.696 176.363 139.968 176.043C140.248 175.723 140.56 175.459 140.904 175.251C141.248 175.043 141.612 174.891 141.996 174.795C142.388 174.699 142.784 174.651 143.184 174.651C143.824 174.651 144.392 174.755 144.888 174.963C145.392 175.163 145.816 175.459 146.16 175.851C146.512 176.243 146.78 176.727 146.964 177.303C147.148 177.871 147.24 178.523 147.24 179.259V186.999H145.104V179.259C145.104 178.307 144.896 177.587 144.48 177.099C144.064 176.603 143.46 176.355 142.668 176.355C142.316 176.355 141.98 176.419 141.66 176.547C141.348 176.667 141.072 176.847 140.832 177.087C140.592 177.327 140.4 177.631 140.256 177.999C140.12 178.359 140.052 178.779 140.052 179.259V186.999H137.916V179.259C137.916 178.283 137.72 177.555 137.328 177.075C136.936 176.595 136.364 176.355 135.612 176.355C135.084 176.355 134.592 176.499 134.136 176.787C133.688 177.067 133.276 177.451 132.9 177.939V186.999H130.764ZM159.403 186.999H158.455C158.247 186.999 158.079 186.967 157.951 186.903C157.823 186.839 157.739 186.703 157.699 186.495L157.459 185.367C157.139 185.655 156.827 185.915 156.523 186.147C156.219 186.371 155.899 186.563 155.563 186.723C155.227 186.875 154.867 186.991 154.483 187.071C154.107 187.151 153.687 187.191 153.223 187.191C152.751 187.191 152.307 187.127 151.891 186.999C151.483 186.863 151.127 186.663 150.823 186.399C150.519 186.135 150.275 185.803 150.091 185.403C149.915 184.995 149.827 184.515 149.827 183.963C149.827 183.483 149.959 183.023 150.223 182.583C150.487 182.135 150.911 181.739 151.495 181.395C152.087 181.051 152.859 180.771 153.811 180.555C154.763 180.331 155.927 180.203 157.303 180.171V179.223C157.303 178.279 157.099 177.567 156.691 177.087C156.291 176.599 155.695 176.355 154.903 176.355C154.383 176.355 153.943 176.423 153.583 176.559C153.231 176.687 152.923 176.835 152.659 177.003C152.403 177.163 152.179 177.311 151.987 177.447C151.803 177.575 151.619 177.639 151.435 177.639C151.291 177.639 151.163 177.603 151.051 177.531C150.947 177.451 150.863 177.355 150.799 177.243L150.415 176.559C151.087 175.911 151.811 175.427 152.587 175.107C153.363 174.787 154.223 174.627 155.167 174.627C155.847 174.627 156.451 174.739 156.979 174.963C157.507 175.187 157.951 175.499 158.311 175.899C158.671 176.299 158.943 176.783 159.127 177.351C159.311 177.919 159.403 178.543 159.403 179.223V186.999ZM153.859 185.691C154.235 185.691 154.579 185.655 154.891 185.583C155.203 185.503 155.495 185.395 155.767 185.259C156.047 185.115 156.311 184.943 156.559 184.743C156.815 184.543 157.063 184.315 157.303 184.059V181.527C156.319 181.559 155.483 181.639 154.795 181.767C154.107 181.887 153.547 182.047 153.115 182.247C152.683 182.447 152.367 182.683 152.167 182.955C151.975 183.227 151.879 183.531 151.879 183.867C151.879 184.187 151.931 184.463 152.035 184.695C152.139 184.927 152.279 185.119 152.455 185.271C152.631 185.415 152.839 185.523 153.079 185.595C153.319 185.659 153.579 185.691 153.859 185.691ZM171.195 186.999C170.891 186.999 170.699 186.851 170.619 186.555L170.427 185.079C169.907 185.711 169.311 186.219 168.639 186.603C167.975 186.979 167.211 187.167 166.347 187.167C165.651 187.167 165.019 187.035 164.451 186.771C163.883 186.499 163.399 186.103 162.999 185.583C162.599 185.063 162.291 184.415 162.075 183.639C161.859 182.863 161.751 181.971 161.751 180.963C161.751 180.067 161.871 179.235 162.111 178.467C162.351 177.691 162.695 177.019 163.143 176.451C163.599 175.883 164.151 175.439 164.799 175.119C165.447 174.791 166.183 174.627 167.007 174.627C167.751 174.627 168.387 174.755 168.915 175.011C169.443 175.259 169.915 175.611 170.331 176.067V169.323H172.467V186.999H171.195ZM167.055 185.439C167.751 185.439 168.359 185.279 168.879 184.959C169.407 184.639 169.891 184.187 170.331 183.603V177.723C169.939 177.195 169.507 176.827 169.035 176.619C168.571 176.403 168.055 176.295 167.487 176.295C166.351 176.295 165.479 176.699 164.871 177.507C164.263 178.315 163.959 179.467 163.959 180.963C163.959 181.755 164.027 182.435 164.163 183.003C164.299 183.563 164.499 184.027 164.763 184.395C165.027 184.755 165.351 185.019 165.735 185.187C166.119 185.355 166.559 185.439 167.055 185.439ZM180.857 174.651C181.585 174.651 182.257 174.775 182.873 175.023C183.489 175.263 184.021 175.615 184.469 176.079C184.917 176.535 185.265 177.103 185.513 177.783C185.769 178.455 185.897 179.223 185.897 180.087C185.897 180.423 185.861 180.647 185.789 180.759C185.717 180.871 185.581 180.927 185.381 180.927H177.293C177.309 181.695 177.413 182.363 177.605 182.931C177.797 183.499 178.061 183.975 178.397 184.359C178.733 184.735 179.133 185.019 179.597 185.211C180.061 185.395 180.581 185.487 181.157 185.487C181.693 185.487 182.153 185.427 182.537 185.307C182.929 185.179 183.265 185.043 183.545 184.899C183.825 184.755 184.057 184.623 184.241 184.503C184.433 184.375 184.597 184.311 184.733 184.311C184.909 184.311 185.045 184.379 185.141 184.515L185.741 185.295C185.477 185.615 185.161 185.895 184.793 186.135C184.425 186.367 184.029 186.559 183.605 186.711C183.189 186.863 182.757 186.975 182.309 187.047C181.861 187.127 181.417 187.167 180.977 187.167C180.137 187.167 179.361 187.027 178.649 186.747C177.945 186.459 177.333 186.043 176.813 185.499C176.301 184.947 175.901 184.267 175.613 183.459C175.325 182.651 175.181 181.723 175.181 180.675C175.181 179.827 175.309 179.035 175.565 178.299C175.829 177.563 176.205 176.927 176.693 176.391C177.181 175.847 177.777 175.423 178.481 175.119C179.185 174.807 179.977 174.651 180.857 174.651ZM180.905 176.223C179.873 176.223 179.061 176.523 178.469 177.123C177.877 177.715 177.509 178.539 177.365 179.595H183.977C183.977 179.099 183.909 178.647 183.773 178.239C183.637 177.823 183.437 177.467 183.173 177.171C182.909 176.867 182.585 176.635 182.201 176.475C181.825 176.307 181.393 176.223 180.905 176.223ZM193.272 186.999V174.843H194.544C194.848 174.843 195.04 174.991 195.12 175.287L195.276 176.535C195.724 175.983 196.224 175.531 196.776 175.179C197.336 174.827 197.984 174.651 198.72 174.651C199.544 174.651 200.208 174.879 200.712 175.335C201.224 175.791 201.592 176.407 201.816 177.183C201.984 176.743 202.204 176.363 202.476 176.043C202.756 175.723 203.068 175.459 203.412 175.251C203.756 175.043 204.12 174.891 204.504 174.795C204.896 174.699 205.292 174.651 205.692 174.651C206.332 174.651 206.9 174.755 207.396 174.963C207.9 175.163 208.324 175.459 208.668 175.851C209.02 176.243 209.288 176.727 209.472 177.303C209.656 177.871 209.748 178.523 209.748 179.259V186.999H207.612V179.259C207.612 178.307 207.404 177.587 206.988 177.099C206.572 176.603 205.968 176.355 205.176 176.355C204.824 176.355 204.488 176.419 204.168 176.547C203.856 176.667 203.58 176.847 203.34 177.087C203.1 177.327 202.908 177.631 202.764 177.999C202.628 178.359 202.56 178.779 202.56 179.259V186.999H200.424V179.259C200.424 178.283 200.228 177.555 199.836 177.075C199.444 176.595 198.872 176.355 198.12 176.355C197.592 176.355 197.1 176.499 196.644 176.787C196.196 177.067 195.784 177.451 195.408 177.939V186.999H193.272ZM221.911 186.999H220.963C220.755 186.999 220.587 186.967 220.459 186.903C220.331 186.839 220.247 186.703 220.207 186.495L219.967 185.367C219.647 185.655 219.335 185.915 219.031 186.147C218.727 186.371 218.407 186.563 218.071 186.723C217.735 186.875 217.375 186.991 216.991 187.071C216.615 187.151 216.195 187.191 215.731 187.191C215.259 187.191 214.815 187.127 214.399 186.999C213.991 186.863 213.635 186.663 213.331 186.399C213.027 186.135 212.783 185.803 212.599 185.403C212.423 184.995 212.335 184.515 212.335 183.963C212.335 183.483 212.467 183.023 212.731 182.583C212.995 182.135 213.419 181.739 214.003 181.395C214.595 181.051 215.367 180.771 216.319 180.555C217.271 180.331 218.435 180.203 219.811 180.171V179.223C219.811 178.279 219.607 177.567 219.199 177.087C218.799 176.599 218.203 176.355 217.411 176.355C216.891 176.355 216.451 176.423 216.091 176.559C215.739 176.687 215.431 176.835 215.167 177.003C214.911 177.163 214.687 177.311 214.495 177.447C214.311 177.575 214.127 177.639 213.943 177.639C213.799 177.639 213.671 177.603 213.559 177.531C213.455 177.451 213.371 177.355 213.307 177.243L212.923 176.559C213.595 175.911 214.319 175.427 215.095 175.107C215.871 174.787 216.731 174.627 217.675 174.627C218.355 174.627 218.959 174.739 219.487 174.963C220.015 175.187 220.459 175.499 220.819 175.899C221.179 176.299 221.451 176.783 221.635 177.351C221.819 177.919 221.911 178.543 221.911 179.223V186.999ZM216.367 185.691C216.743 185.691 217.087 185.655 217.399 185.583C217.711 185.503 218.003 185.395 218.275 185.259C218.555 185.115 218.819 184.943 219.067 184.743C219.323 184.543 219.571 184.315 219.811 184.059V181.527C218.827 181.559 217.991 181.639 217.303 181.767C216.615 181.887 216.055 182.047 215.623 182.247C215.191 182.447 214.875 182.683 214.675 182.955C214.483 183.227 214.387 183.531 214.387 183.867C214.387 184.187 214.439 184.463 214.543 184.695C214.647 184.927 214.787 185.119 214.963 185.271C215.139 185.415 215.347 185.523 215.587 185.595C215.827 185.659 216.087 185.691 216.367 185.691ZM225.147 186.999V174.843H226.419C226.723 174.843 226.915 174.991 226.995 175.287L227.163 176.607C227.691 176.023 228.279 175.551 228.927 175.191C229.583 174.831 230.339 174.651 231.195 174.651C231.859 174.651 232.443 174.763 232.947 174.987C233.459 175.203 233.883 175.515 234.219 175.923C234.563 176.323 234.823 176.807 234.999 177.375C235.175 177.943 235.263 178.571 235.263 179.259V186.999H233.127V179.259C233.127 178.339 232.915 177.627 232.491 177.123C232.075 176.611 231.435 176.355 230.571 176.355C229.939 176.355 229.347 176.507 228.795 176.811C228.251 177.115 227.747 177.527 227.283 178.047V186.999H225.147ZM241.672 190.587C241.6 190.747 241.508 190.875 241.396 190.971C241.292 191.067 241.128 191.115 240.904 191.115H239.32L241.54 186.291L236.524 174.843H238.372C238.556 174.843 238.7 174.891 238.804 174.987C238.908 175.075 238.984 175.175 239.032 175.287L242.284 182.943C242.356 183.119 242.416 183.295 242.464 183.471C242.52 183.647 242.568 183.827 242.608 184.011C242.664 183.827 242.72 183.647 242.776 183.471C242.832 183.295 242.896 183.115 242.968 182.931L246.124 175.287C246.172 175.159 246.252 175.055 246.364 174.975C246.484 174.887 246.612 174.843 246.748 174.843H248.452L241.672 190.587ZM14.7834 220.115V203.843H16.0554C16.3594 203.843 16.5514 203.991 16.6314 204.287L16.8114 205.727C17.3314 205.095 17.9234 204.587 18.5874 204.203C19.2594 203.819 20.0314 203.627 20.9034 203.627C21.5994 203.627 22.2314 203.763 22.7994 204.035C23.3674 204.299 23.8514 204.695 24.2514 205.223C24.6514 205.743 24.9594 206.391 25.1754 207.167C25.3914 207.943 25.4994 208.835 25.4994 209.843C25.4994 210.739 25.3794 211.575 25.1394 212.351C24.8994 213.119 24.5554 213.787 24.1074 214.355C23.6594 214.915 23.1074 215.359 22.4514 215.687C21.8034 216.007 21.0714 216.167 20.2554 216.167C19.5034 216.167 18.8594 216.043 18.3234 215.795C17.7954 215.547 17.3274 215.195 16.9194 214.739V220.115H14.7834ZM20.1954 205.355C19.4994 205.355 18.8874 205.515 18.3594 205.835C17.8394 206.155 17.3594 206.607 16.9194 207.191V213.071C17.3114 213.599 17.7394 213.971 18.2034 214.187C18.6754 214.403 19.1994 214.511 19.7754 214.511C20.9034 214.511 21.7714 214.107 22.3794 213.299C22.9874 212.491 23.2914 211.339 23.2914 209.843C23.2914 209.051 23.2194 208.371 23.0754 207.803C22.9394 207.235 22.7394 206.771 22.4754 206.411C22.2114 206.043 21.8874 205.775 21.5034 205.607C21.1194 205.439 20.6834 205.355 20.1954 205.355ZM32.8376 203.651C33.5656 203.651 34.2376 203.775 34.8536 204.023C35.4696 204.263 36.0016 204.615 36.4496 205.079C36.8976 205.535 37.2456 206.103 37.4936 206.783C37.7496 207.455 37.8776 208.223 37.8776 209.087C37.8776 209.423 37.8416 209.647 37.7696 209.759C37.6976 209.871 37.5616 209.927 37.3616 209.927H29.2736C29.2896 210.695 29.3936 211.363 29.5856 211.931C29.7776 212.499 30.0416 212.975 30.3776 213.359C30.7136 213.735 31.1136 214.019 31.5776 214.211C32.0416 214.395 32.5616 214.487 33.1376 214.487C33.6736 214.487 34.1336 214.427 34.5176 214.307C34.9096 214.179 35.2456 214.043 35.5256 213.899C35.8056 213.755 36.0376 213.623 36.2216 213.503C36.4136 213.375 36.5776 213.311 36.7136 213.311C36.8896 213.311 37.0256 213.379 37.1216 213.515L37.7216 214.295C37.4576 214.615 37.1416 214.895 36.7736 215.135C36.4056 215.367 36.0096 215.559 35.5856 215.711C35.1696 215.863 34.7376 215.975 34.2896 216.047C33.8416 216.127 33.3976 216.167 32.9576 216.167C32.1176 216.167 31.3416 216.027 30.6296 215.747C29.9256 215.459 29.3136 215.043 28.7936 214.499C28.2816 213.947 27.8816 213.267 27.5936 212.459C27.3056 211.651 27.1616 210.723 27.1616 209.675C27.1616 208.827 27.2896 208.035 27.5456 207.299C27.8096 206.563 28.1856 205.927 28.6736 205.391C29.1616 204.847 29.7576 204.423 30.4616 204.119C31.1656 203.807 31.9576 203.651 32.8376 203.651ZM32.8856 205.223C31.8536 205.223 31.0416 205.523 30.4496 206.123C29.8576 206.715 29.4896 207.539 29.3456 208.595H35.9576C35.9576 208.099 35.8896 207.647 35.7536 207.239C35.6176 206.823 35.4176 206.467 35.1536 206.171C34.8896 205.867 34.5656 205.635 34.1816 205.475C33.8056 205.307 33.3736 205.223 32.8856 205.223ZM45.5315 203.651C46.4195 203.651 47.2195 203.799 47.9315 204.095C48.6515 204.391 49.2595 204.811 49.7555 205.355C50.2595 205.899 50.6435 206.559 50.9075 207.335C51.1795 208.103 51.3155 208.963 51.3155 209.915C51.3155 210.875 51.1795 211.739 50.9075 212.507C50.6435 213.275 50.2595 213.931 49.7555 214.475C49.2595 215.019 48.6515 215.439 47.9315 215.735C47.2195 216.023 46.4195 216.167 45.5315 216.167C44.6435 216.167 43.8395 216.023 43.1195 215.735C42.4075 215.439 41.7995 215.019 41.2955 214.475C40.7915 213.931 40.4035 213.275 40.1315 212.507C39.8595 211.739 39.7235 210.875 39.7235 209.915C39.7235 208.963 39.8595 208.103 40.1315 207.335C40.4035 206.559 40.7915 205.899 41.2955 205.355C41.7995 204.811 42.4075 204.391 43.1195 204.095C43.8395 203.799 44.6435 203.651 45.5315 203.651ZM45.5315 214.499C46.7315 214.499 47.6275 214.099 48.2195 213.299C48.8115 212.491 49.1075 211.367 49.1075 209.927C49.1075 208.479 48.8115 207.351 48.2195 206.543C47.6275 205.735 46.7315 205.331 45.5315 205.331C44.9235 205.331 44.3955 205.435 43.9475 205.643C43.4995 205.851 43.1235 206.151 42.8195 206.543C42.5235 206.935 42.2995 207.419 42.1475 207.995C42.0035 208.563 41.9315 209.207 41.9315 209.927C41.9315 210.647 42.0035 211.291 42.1475 211.859C42.2995 212.427 42.5235 212.907 42.8195 213.299C43.1235 213.683 43.4995 213.979 43.9475 214.187C44.3955 214.395 44.9235 214.499 45.5315 214.499ZM53.9474 220.115V203.843H55.2194C55.5235 203.843 55.7155 203.991 55.7954 204.287L55.9755 205.727C56.4955 205.095 57.0875 204.587 57.7515 204.203C58.4235 203.819 59.1955 203.627 60.0675 203.627C60.7635 203.627 61.3955 203.763 61.9634 204.035C62.5315 204.299 63.0155 204.695 63.4155 205.223C63.8155 205.743 64.1235 206.391 64.3395 207.167C64.5555 207.943 64.6635 208.835 64.6635 209.843C64.6635 210.739 64.5435 211.575 64.3035 212.351C64.0635 213.119 63.7195 213.787 63.2715 214.355C62.8235 214.915 62.2715 215.359 61.6155 215.687C60.9675 216.007 60.2355 216.167 59.4195 216.167C58.6675 216.167 58.0235 216.043 57.4875 215.795C56.9595 215.547 56.4915 215.195 56.0834 214.739V220.115H53.9474ZM59.3594 205.355C58.6635 205.355 58.0515 205.515 57.5235 205.835C57.0035 206.155 56.5234 206.607 56.0834 207.191V213.071C56.4755 213.599 56.9035 213.971 57.3675 214.187C57.8395 214.403 58.3635 214.511 58.9395 214.511C60.0675 214.511 60.9355 214.107 61.5435 213.299C62.1515 212.491 62.4555 211.339 62.4555 209.843C62.4555 209.051 62.3835 208.371 62.2394 207.803C62.1035 207.235 61.9035 206.771 61.6395 206.411C61.3755 206.043 61.0515 205.775 60.6675 205.607C60.2835 205.439 59.8475 205.355 59.3594 205.355ZM69.5656 198.323V215.999H67.4296V198.323H69.5656ZM78.1423 203.651C78.8703 203.651 79.5423 203.775 80.1583 204.023C80.7743 204.263 81.3063 204.615 81.7543 205.079C82.2023 205.535 82.5503 206.103 82.7983 206.783C83.0543 207.455 83.1823 208.223 83.1823 209.087C83.1823 209.423 83.1463 209.647 83.0743 209.759C83.0023 209.871 82.8663 209.927 82.6663 209.927H74.5783C74.5943 210.695 74.6983 211.363 74.8903 211.931C75.0823 212.499 75.3463 212.975 75.6823 213.359C76.0183 213.735 76.4183 214.019 76.8823 214.211C77.3463 214.395 77.8663 214.487 78.4423 214.487C78.9783 214.487 79.4383 214.427 79.8223 214.307C80.2143 214.179 80.5503 214.043 80.8303 213.899C81.1103 213.755 81.3423 213.623 81.5263 213.503C81.7183 213.375 81.8823 213.311 82.0183 213.311C82.1943 213.311 82.3303 213.379 82.4263 213.515L83.0263 214.295C82.7623 214.615 82.4463 214.895 82.0783 215.135C81.7103 215.367 81.3143 215.559 80.8903 215.711C80.4743 215.863 80.0423 215.975 79.5943 216.047C79.1463 216.127 78.7023 216.167 78.2623 216.167C77.4223 216.167 76.6463 216.027 75.9343 215.747C75.2303 215.459 74.6183 215.043 74.0983 214.499C73.5863 213.947 73.1863 213.267 72.8983 212.459C72.6103 211.651 72.4663 210.723 72.4663 209.675C72.4663 208.827 72.5943 208.035 72.8503 207.299C73.1143 206.563 73.4903 205.927 73.9783 205.391C74.4663 204.847 75.0623 204.423 75.7663 204.119C76.4703 203.807 77.2623 203.651 78.1423 203.651ZM78.1903 205.223C77.1583 205.223 76.3463 205.523 75.7543 206.123C75.1623 206.715 74.7943 207.539 74.6503 208.595H81.2623C81.2623 208.099 81.1943 207.647 81.0583 207.239C80.9223 206.823 80.7223 206.467 80.4583 206.171C80.1943 205.867 79.8703 205.635 79.4863 205.475C79.1103 205.307 78.6783 205.223 78.1903 205.223ZM97.5168 205.847C97.4208 206.023 97.2728 206.111 97.0728 206.111C96.9528 206.111 96.8168 206.067 96.6648 205.979C96.5128 205.891 96.3248 205.795 96.1008 205.691C95.8848 205.579 95.6248 205.479 95.3208 205.391C95.0168 205.295 94.6568 205.247 94.2408 205.247C93.8808 205.247 93.5568 205.295 93.2688 205.391C92.9808 205.479 92.7328 205.603 92.5248 205.763C92.3248 205.923 92.1688 206.111 92.0568 206.327C91.9528 206.535 91.9008 206.763 91.9008 207.011C91.9008 207.323 91.9888 207.583 92.1648 207.791C92.3488 207.999 92.5888 208.179 92.8848 208.331C93.1808 208.483 93.5168 208.619 93.8928 208.739C94.2688 208.851 94.6528 208.975 95.0448 209.111C95.4448 209.239 95.8328 209.383 96.2088 209.543C96.5848 209.703 96.9208 209.903 97.2168 210.143C97.5128 210.383 97.7488 210.679 97.9248 211.031C98.1088 211.375 98.2008 211.791 98.2008 212.279C98.2008 212.839 98.1008 213.359 97.9008 213.839C97.7008 214.311 97.4048 214.723 97.0128 215.075C96.6208 215.419 96.1408 215.691 95.5728 215.891C95.0048 216.091 94.3488 216.191 93.6048 216.191C92.7568 216.191 91.9888 216.055 91.3008 215.783C90.6128 215.503 90.0288 215.147 89.5488 214.715L90.0528 213.899C90.1168 213.795 90.1928 213.715 90.2808 213.659C90.3688 213.603 90.4848 213.575 90.6288 213.575C90.7728 213.575 90.9248 213.631 91.0848 213.743C91.2448 213.855 91.4368 213.979 91.6608 214.115C91.8928 214.251 92.1688 214.375 92.4888 214.487C92.8168 214.599 93.2248 214.655 93.7128 214.655C94.1288 214.655 94.4928 214.603 94.8048 214.499C95.1168 214.387 95.3768 214.239 95.5848 214.055C95.7928 213.871 95.9448 213.659 96.0408 213.419C96.1448 213.179 96.1968 212.923 96.1968 212.651C96.1968 212.315 96.1048 212.039 95.9208 211.823C95.7448 211.599 95.5088 211.411 95.2128 211.259C94.9168 211.099 94.5768 210.963 94.1928 210.851C93.8168 210.731 93.4288 210.607 93.0288 210.479C92.6368 210.351 92.2488 210.207 91.8648 210.047C91.4888 209.879 91.1528 209.671 90.8568 209.423C90.5608 209.175 90.3208 208.871 90.1368 208.511C89.9608 208.143 89.8728 207.699 89.8728 207.179C89.8728 206.715 89.9688 206.271 90.1608 205.847C90.3528 205.415 90.6328 205.039 91.0008 204.719C91.3688 204.391 91.8208 204.131 92.3568 203.939C92.8928 203.747 93.5048 203.651 94.1928 203.651C94.9928 203.651 95.7088 203.779 96.3408 204.035C96.9808 204.283 97.5328 204.627 97.9968 205.067L97.5168 205.847ZM109.891 215.999H108.943C108.735 215.999 108.567 215.967 108.439 215.903C108.311 215.839 108.227 215.703 108.187 215.495L107.947 214.367C107.627 214.655 107.315 214.915 107.011 215.147C106.707 215.371 106.387 215.563 106.051 215.723C105.715 215.875 105.355 215.991 104.971 216.071C104.595 216.151 104.175 216.191 103.711 216.191C103.239 216.191 102.795 216.127 102.379 215.999C101.971 215.863 101.615 215.663 101.311 215.399C101.007 215.135 100.763 214.803 100.579 214.403C100.403 213.995 100.315 213.515 100.315 212.963C100.315 212.483 100.447 212.023 100.711 211.583C100.975 211.135 101.399 210.739 101.983 210.395C102.575 210.051 103.347 209.771 104.299 209.555C105.251 209.331 106.415 209.203 107.791 209.171V208.223C107.791 207.279 107.587 206.567 107.179 206.087C106.779 205.599 106.183 205.355 105.391 205.355C104.871 205.355 104.431 205.423 104.071 205.559C103.719 205.687 103.411 205.835 103.147 206.003C102.891 206.163 102.667 206.311 102.475 206.447C102.291 206.575 102.107 206.639 101.923 206.639C101.779 206.639 101.651 206.603 101.539 206.531C101.435 206.451 101.351 206.355 101.287 206.243L100.903 205.559C101.575 204.911 102.299 204.427 103.075 204.107C103.851 203.787 104.711 203.627 105.655 203.627C106.335 203.627 106.939 203.739 107.467 203.963C107.995 204.187 108.439 204.499 108.799 204.899C109.159 205.299 109.431 205.783 109.615 206.351C109.799 206.919 109.891 207.543 109.891 208.223V215.999ZM104.347 214.691C104.723 214.691 105.067 214.655 105.379 214.583C105.691 214.503 105.983 214.395 106.255 214.259C106.535 214.115 106.799 213.943 107.047 213.743C107.303 213.543 107.551 213.315 107.791 213.059V210.527C106.807 210.559 105.971 210.639 105.283 210.767C104.595 210.887 104.035 211.047 103.603 211.247C103.171 211.447 102.855 211.683 102.655 211.955C102.463 212.227 102.367 212.531 102.367 212.867C102.367 213.187 102.419 213.463 102.523 213.695C102.627 213.927 102.767 214.119 102.943 214.271C103.119 214.415 103.327 214.523 103.567 214.595C103.807 214.659 104.067 214.691 104.347 214.691ZM116.811 216.191C115.851 216.191 115.111 215.923 114.591 215.387C114.079 214.851 113.823 214.079 113.823 213.071V205.631H112.359C112.231 205.631 112.123 205.595 112.035 205.523C111.947 205.443 111.903 205.323 111.903 205.163V204.311L113.895 204.059L114.387 200.303C114.403 200.183 114.455 200.087 114.543 200.015C114.631 199.935 114.743 199.895 114.879 199.895H115.959V204.083H119.439V205.631H115.959V212.927C115.959 213.439 116.083 213.819 116.331 214.067C116.579 214.315 116.899 214.439 117.291 214.439C117.515 214.439 117.707 214.411 117.867 214.355C118.035 214.291 118.179 214.223 118.299 214.151C118.419 214.079 118.519 214.015 118.599 213.959C118.687 213.895 118.763 213.863 118.827 213.863C118.939 213.863 119.039 213.931 119.127 214.067L119.751 215.087C119.383 215.431 118.939 215.703 118.419 215.903C117.899 216.095 117.363 216.191 116.811 216.191ZM124.456 203.843V215.999H122.32V203.843H124.456ZM124.936 200.027C124.936 200.235 124.892 200.431 124.804 200.615C124.724 200.791 124.612 200.951 124.468 201.095C124.332 201.231 124.172 201.339 123.988 201.419C123.804 201.499 123.608 201.539 123.4 201.539C123.192 201.539 122.996 201.499 122.812 201.419C122.636 201.339 122.476 201.231 122.332 201.095C122.196 200.951 122.088 200.791 122.008 200.615C121.928 200.431 121.888 200.235 121.888 200.027C121.888 199.819 121.928 199.623 122.008 199.439C122.088 199.247 122.196 199.083 122.332 198.947C122.476 198.803 122.636 198.691 122.812 198.611C122.996 198.531 123.192 198.491 123.4 198.491C123.608 198.491 123.804 198.531 123.988 198.611C124.172 198.691 124.332 198.803 124.468 198.947C124.612 199.083 124.724 199.247 124.804 199.439C124.892 199.623 124.936 199.819 124.936 200.027ZM135.181 205.847C135.085 206.023 134.937 206.111 134.737 206.111C134.617 206.111 134.481 206.067 134.329 205.979C134.177 205.891 133.989 205.795 133.765 205.691C133.549 205.579 133.289 205.479 132.985 205.391C132.681 205.295 132.321 205.247 131.905 205.247C131.545 205.247 131.221 205.295 130.933 205.391C130.645 205.479 130.397 205.603 130.189 205.763C129.989 205.923 129.833 206.111 129.721 206.327C129.617 206.535 129.565 206.763 129.565 207.011C129.565 207.323 129.653 207.583 129.829 207.791C130.013 207.999 130.253 208.179 130.549 208.331C130.845 208.483 131.181 208.619 131.557 208.739C131.933 208.851 132.317 208.975 132.709 209.111C133.109 209.239 133.497 209.383 133.873 209.543C134.249 209.703 134.585 209.903 134.881 210.143C135.177 210.383 135.413 210.679 135.589 211.031C135.773 211.375 135.865 211.791 135.865 212.279C135.865 212.839 135.765 213.359 135.565 213.839C135.365 214.311 135.069 214.723 134.677 215.075C134.285 215.419 133.805 215.691 133.237 215.891C132.669 216.091 132.013 216.191 131.269 216.191C130.421 216.191 129.653 216.055 128.965 215.783C128.277 215.503 127.693 215.147 127.213 214.715L127.717 213.899C127.781 213.795 127.857 213.715 127.945 213.659C128.033 213.603 128.149 213.575 128.293 213.575C128.437 213.575 128.589 213.631 128.749 213.743C128.909 213.855 129.101 213.979 129.325 214.115C129.557 214.251 129.833 214.375 130.153 214.487C130.481 214.599 130.889 214.655 131.377 214.655C131.793 214.655 132.157 214.603 132.469 214.499C132.781 214.387 133.041 214.239 133.249 214.055C133.457 213.871 133.609 213.659 133.705 213.419C133.809 213.179 133.861 212.923 133.861 212.651C133.861 212.315 133.769 212.039 133.585 211.823C133.409 211.599 133.173 211.411 132.877 211.259C132.581 211.099 132.241 210.963 131.857 210.851C131.481 210.731 131.093 210.607 130.693 210.479C130.301 210.351 129.913 210.207 129.529 210.047C129.153 209.879 128.817 209.671 128.521 209.423C128.225 209.175 127.985 208.871 127.801 208.511C127.625 208.143 127.537 207.699 127.537 207.179C127.537 206.715 127.633 206.271 127.825 205.847C128.017 205.415 128.297 205.039 128.665 204.719C129.033 204.391 129.485 204.131 130.021 203.939C130.557 203.747 131.169 203.651 131.857 203.651C132.657 203.651 133.373 203.779 134.005 204.035C134.645 204.283 135.197 204.627 135.661 205.067L135.181 205.847ZM139.107 215.999V205.667L137.763 205.511C137.595 205.471 137.455 205.411 137.343 205.331C137.239 205.243 137.187 205.119 137.187 204.959V204.083H139.107V203.411C139.107 202.667 139.223 201.987 139.455 201.371C139.687 200.747 140.035 200.211 140.499 199.763C140.963 199.315 141.539 198.967 142.227 198.719C142.923 198.471 143.731 198.347 144.651 198.347C144.955 198.347 145.263 198.367 145.575 198.407C145.895 198.447 146.171 198.507 146.403 198.587L146.331 199.703C146.315 199.807 146.267 199.875 146.187 199.907C146.107 199.931 145.991 199.943 145.839 199.943C145.751 199.943 145.659 199.943 145.563 199.943C145.467 199.935 145.359 199.931 145.239 199.931C143.823 199.931 142.791 200.227 142.143 200.819C141.503 201.403 141.183 202.287 141.183 203.471V204.083H148.527V215.999H146.391V205.631H141.255V215.999H139.107ZM157.127 203.651C157.855 203.651 158.527 203.775 159.143 204.023C159.759 204.263 160.291 204.615 160.739 205.079C161.187 205.535 161.535 206.103 161.783 206.783C162.039 207.455 162.167 208.223 162.167 209.087C162.167 209.423 162.131 209.647 162.059 209.759C161.987 209.871 161.851 209.927 161.651 209.927H153.563C153.579 210.695 153.683 211.363 153.875 211.931C154.067 212.499 154.331 212.975 154.667 213.359C155.003 213.735 155.403 214.019 155.867 214.211C156.331 214.395 156.851 214.487 157.427 214.487C157.963 214.487 158.423 214.427 158.807 214.307C159.199 214.179 159.535 214.043 159.815 213.899C160.095 213.755 160.327 213.623 160.511 213.503C160.703 213.375 160.867 213.311 161.003 213.311C161.179 213.311 161.315 213.379 161.411 213.515L162.011 214.295C161.747 214.615 161.431 214.895 161.063 215.135C160.695 215.367 160.299 215.559 159.875 215.711C159.459 215.863 159.027 215.975 158.579 216.047C158.131 216.127 157.687 216.167 157.247 216.167C156.407 216.167 155.631 216.027 154.919 215.747C154.215 215.459 153.603 215.043 153.083 214.499C152.571 213.947 152.171 213.267 151.883 212.459C151.595 211.651 151.451 210.723 151.451 209.675C151.451 208.827 151.579 208.035 151.835 207.299C152.099 206.563 152.475 205.927 152.963 205.391C153.451 204.847 154.047 204.423 154.751 204.119C155.455 203.807 156.247 203.651 157.127 203.651ZM157.175 205.223C156.143 205.223 155.331 205.523 154.739 206.123C154.147 206.715 153.779 207.539 153.635 208.595H160.247C160.247 208.099 160.179 207.647 160.043 207.239C159.907 206.823 159.707 206.467 159.443 206.171C159.179 205.867 158.855 205.635 158.471 205.475C158.095 205.307 157.663 205.223 157.175 205.223ZM173.457 215.999C173.153 215.999 172.961 215.851 172.881 215.555L172.689 214.079C172.169 214.711 171.573 215.219 170.901 215.603C170.237 215.979 169.473 216.167 168.609 216.167C167.913 216.167 167.281 216.035 166.713 215.771C166.145 215.499 165.661 215.103 165.261 214.583C164.861 214.063 164.553 213.415 164.337 212.639C164.121 211.863 164.013 210.971 164.013 209.963C164.013 209.067 164.133 208.235 164.373 207.467C164.613 206.691 164.957 206.019 165.405 205.451C165.861 204.883 166.413 204.439 167.061 204.119C167.709 203.791 168.445 203.627 169.269 203.627C170.013 203.627 170.649 203.755 171.177 204.011C171.705 204.259 172.177 204.611 172.593 205.067V198.323H174.729V215.999H173.457ZM169.317 214.439C170.013 214.439 170.621 214.279 171.141 213.959C171.669 213.639 172.153 213.187 172.593 212.603V206.723C172.201 206.195 171.769 205.827 171.297 205.619C170.833 205.403 170.317 205.295 169.749 205.295C168.613 205.295 167.741 205.699 167.133 206.507C166.525 207.315 166.221 208.467 166.221 209.963C166.221 210.755 166.289 211.435 166.425 212.003C166.561 212.563 166.761 213.027 167.025 213.395C167.289 213.755 167.613 214.019 167.997 214.187C168.381 214.355 168.821 214.439 169.317 214.439ZM181.363 203.843H183.043C183.219 203.843 183.363 203.887 183.475 203.975C183.587 204.063 183.663 204.167 183.703 204.287L186.031 212.111C186.095 212.399 186.155 212.679 186.211 212.951C186.267 213.215 186.315 213.483 186.355 213.755C186.419 213.483 186.491 213.215 186.571 212.951C186.651 212.679 186.735 212.399 186.823 212.111L189.391 204.239C189.431 204.119 189.499 204.019 189.595 203.939C189.699 203.859 189.827 203.819 189.979 203.819H190.903C191.063 203.819 191.195 203.859 191.299 203.939C191.403 204.019 191.475 204.119 191.515 204.239L194.023 212.111C194.111 212.391 194.187 212.667 194.251 212.939C194.323 213.211 194.391 213.479 194.455 213.743C194.495 213.479 194.547 213.203 194.611 212.915C194.675 212.627 194.743 212.359 194.815 212.111L197.191 204.287C197.231 204.159 197.307 204.055 197.419 203.975C197.531 203.887 197.663 203.843 197.815 203.843H199.423L195.487 215.999H193.795C193.587 215.999 193.443 215.863 193.363 215.591L190.675 207.347C190.611 207.163 190.559 206.979 190.519 206.795C190.479 206.603 190.439 206.415 190.399 206.231C190.359 206.415 190.319 206.603 190.279 206.795C190.239 206.987 190.187 207.175 190.123 207.359L187.399 215.591C187.311 215.863 187.147 215.999 186.907 215.999H185.299L181.363 203.843ZM203.698 203.843V215.999H201.562V203.843H203.698ZM204.178 200.027C204.178 200.235 204.134 200.431 204.046 200.615C203.966 200.791 203.854 200.951 203.71 201.095C203.574 201.231 203.414 201.339 203.23 201.419C203.046 201.499 202.85 201.539 202.642 201.539C202.434 201.539 202.238 201.499 202.054 201.419C201.878 201.339 201.718 201.231 201.574 201.095C201.438 200.951 201.33 200.791 201.25 200.615C201.17 200.431 201.13 200.235 201.13 200.027C201.13 199.819 201.17 199.623 201.25 199.439C201.33 199.247 201.438 199.083 201.574 198.947C201.718 198.803 201.878 198.691 202.054 198.611C202.238 198.531 202.434 198.491 202.642 198.491C202.85 198.491 203.046 198.531 203.23 198.611C203.414 198.691 203.574 198.803 203.71 198.947C203.854 199.083 203.966 199.247 204.046 199.439C204.134 199.623 204.178 199.819 204.178 200.027ZM211.147 216.191C210.187 216.191 209.447 215.923 208.927 215.387C208.415 214.851 208.159 214.079 208.159 213.071V205.631H206.695C206.567 205.631 206.459 205.595 206.371 205.523C206.283 205.443 206.239 205.323 206.239 205.163V204.311L208.231 204.059L208.723 200.303C208.739 200.183 208.791 200.087 208.879 200.015C208.967 199.935 209.079 199.895 209.215 199.895H210.295V204.083H213.775V205.631H210.295V212.927C210.295 213.439 210.419 213.819 210.667 214.067C210.915 214.315 211.235 214.439 211.627 214.439C211.851 214.439 212.043 214.411 212.203 214.355C212.371 214.291 212.515 214.223 212.635 214.151C212.755 214.079 212.855 214.015 212.935 213.959C213.023 213.895 213.099 213.863 213.163 213.863C213.275 213.863 213.375 213.931 213.463 214.067L214.087 215.087C213.719 215.431 213.275 215.703 212.755 215.903C212.235 216.095 211.699 216.191 211.147 216.191ZM216.416 215.999V198.323H218.552V205.475C219.072 204.923 219.648 204.483 220.28 204.155C220.912 203.819 221.64 203.651 222.464 203.651C223.128 203.651 223.712 203.763 224.216 203.987C224.728 204.203 225.152 204.515 225.488 204.923C225.832 205.323 226.092 205.807 226.268 206.375C226.444 206.943 226.532 207.571 226.532 208.259V215.999H224.396V208.259C224.396 207.339 224.184 206.627 223.76 206.123C223.344 205.611 222.704 205.355 221.84 205.355C221.208 205.355 220.616 205.507 220.064 205.811C219.52 206.115 219.016 206.527 218.552 207.047V215.999H216.416ZM239.313 203.651C240.201 203.651 241.001 203.799 241.713 204.095C242.433 204.391 243.041 204.811 243.537 205.355C244.041 205.899 244.425 206.559 244.689 207.335C244.961 208.103 245.097 208.963 245.097 209.915C245.097 210.875 244.961 211.739 244.689 212.507C244.425 213.275 244.041 213.931 243.537 214.475C243.041 215.019 242.433 215.439 241.713 215.735C241.001 216.023 240.201 216.167 239.313 216.167C238.425 216.167 237.621 216.023 236.901 215.735C236.189 215.439 235.581 215.019 235.077 214.475C234.573 213.931 234.185 213.275 233.913 212.507C233.641 211.739 233.505 210.875 233.505 209.915C233.505 208.963 233.641 208.103 233.913 207.335C234.185 206.559 234.573 205.899 235.077 205.355C235.581 204.811 236.189 204.391 236.901 204.095C237.621 203.799 238.425 203.651 239.313 203.651ZM239.313 214.499C240.513 214.499 241.409 214.099 242.001 213.299C242.593 212.491 242.889 211.367 242.889 209.927C242.889 208.479 242.593 207.351 242.001 206.543C241.409 205.735 240.513 205.331 239.313 205.331C238.705 205.331 238.177 205.435 237.729 205.643C237.281 205.851 236.905 206.151 236.601 206.543C236.305 206.935 236.081 207.419 235.929 207.995C235.785 208.563 235.713 209.207 235.713 209.927C235.713 210.647 235.785 211.291 235.929 211.859C236.081 212.427 236.305 212.907 236.601 213.299C236.905 213.683 237.281 213.979 237.729 214.187C238.177 214.395 238.705 214.499 239.313 214.499ZM249.577 203.843V211.595C249.577 212.515 249.789 213.227 250.213 213.731C250.637 214.235 251.277 214.487 252.133 214.487C252.757 214.487 253.345 214.339 253.897 214.043C254.449 213.747 254.957 213.335 255.421 212.807V203.843H257.557V215.999H256.285C255.981 215.999 255.789 215.851 255.709 215.555L255.541 214.247C255.013 214.831 254.421 215.303 253.765 215.663C253.109 216.015 252.357 216.191 251.509 216.191C250.845 216.191 250.257 216.083 249.745 215.867C249.241 215.643 248.817 215.331 248.473 214.931C248.129 214.531 247.869 214.047 247.693 213.479C247.525 212.911 247.441 212.283 247.441 211.595V203.843H249.577ZM261.065 215.999V203.843H262.289C262.521 203.843 262.681 203.887 262.769 203.975C262.857 204.063 262.917 204.215 262.949 204.431L263.093 206.327C263.509 205.479 264.021 204.819 264.629 204.347C265.245 203.867 265.965 203.627 266.789 203.627C267.125 203.627 267.429 203.667 267.701 203.747C267.973 203.819 268.225 203.923 268.457 204.059L268.181 205.655C268.125 205.855 268.001 205.955 267.809 205.955C267.697 205.955 267.525 205.919 267.293 205.847C267.061 205.767 266.737 205.727 266.321 205.727C265.577 205.727 264.953 205.943 264.449 206.375C263.953 206.807 263.537 207.435 263.201 208.259V215.999H261.065ZM99.2848 238.567V244.999H96.9688V227.803H102.045C103.133 227.803 104.077 227.931 104.877 228.187C105.685 228.435 106.353 228.791 106.881 229.255C107.409 229.719 107.801 230.279 108.057 230.935C108.321 231.591 108.453 232.323 108.453 233.131C108.453 233.931 108.313 234.663 108.033 235.327C107.753 235.991 107.341 236.563 106.797 237.043C106.261 237.523 105.593 237.899 104.793 238.171C103.993 238.435 103.077 238.567 102.045 238.567H99.2848ZM99.2848 236.719H102.045C102.709 236.719 103.293 236.631 103.797 236.455C104.309 236.279 104.737 236.035 105.081 235.723C105.425 235.403 105.685 235.023 105.861 234.583C106.037 234.143 106.125 233.659 106.125 233.131C106.125 232.035 105.785 231.179 105.105 230.563C104.433 229.947 103.413 229.639 102.045 229.639H99.2848V236.719ZM113.441 227.323V244.999H111.305V227.323H113.441ZM126.133 244.999H125.185C124.977 244.999 124.809 244.967 124.681 244.903C124.553 244.839 124.469 244.703 124.429 244.495L124.189 243.367C123.869 243.655 123.557 243.915 123.253 244.147C122.949 244.371 122.629 244.563 122.293 244.723C121.957 244.875 121.597 244.991 121.213 245.071C120.837 245.151 120.417 245.191 119.953 245.191C119.481 245.191 119.037 245.127 118.621 244.999C118.213 244.863 117.857 244.663 117.553 244.399C117.249 244.135 117.005 243.803 116.821 243.403C116.645 242.995 116.557 242.515 116.557 241.963C116.557 241.483 116.689 241.023 116.953 240.583C117.217 240.135 117.641 239.739 118.225 239.395C118.817 239.051 119.589 238.771 120.541 238.555C121.493 238.331 122.657 238.203 124.033 238.171V237.223C124.033 236.279 123.829 235.567 123.421 235.087C123.021 234.599 122.425 234.355 121.633 234.355C121.113 234.355 120.673 234.423 120.313 234.559C119.961 234.687 119.653 234.835 119.389 235.003C119.133 235.163 118.909 235.311 118.717 235.447C118.533 235.575 118.349 235.639 118.165 235.639C118.021 235.639 117.893 235.603 117.781 235.531C117.677 235.451 117.593 235.355 117.529 235.243L117.145 234.559C117.817 233.911 118.541 233.427 119.317 233.107C120.093 232.787 120.953 232.627 121.897 232.627C122.577 232.627 123.181 232.739 123.709 232.963C124.237 233.187 124.681 233.499 125.041 233.899C125.401 234.299 125.673 234.783 125.857 235.351C126.041 235.919 126.133 236.543 126.133 237.223V244.999ZM120.589 243.691C120.965 243.691 121.309 243.655 121.621 243.583C121.933 243.503 122.225 243.395 122.497 243.259C122.777 243.115 123.041 242.943 123.289 242.743C123.545 242.543 123.793 242.315 124.033 242.059V239.527C123.049 239.559 122.213 239.639 121.525 239.767C120.837 239.887 120.277 240.047 119.845 240.247C119.413 240.447 119.097 240.683 118.897 240.955C118.705 241.227 118.609 241.531 118.609 241.867C118.609 242.187 118.661 242.463 118.765 242.695C118.869 242.927 119.009 243.119 119.185 243.271C119.361 243.415 119.569 243.523 119.809 243.595C120.049 243.659 120.309 243.691 120.589 243.691ZM133.053 245.191C132.093 245.191 131.353 244.923 130.833 244.387C130.321 243.851 130.065 243.079 130.065 242.071V234.631H128.601C128.473 234.631 128.365 234.595 128.277 234.523C128.189 234.443 128.145 234.323 128.145 234.163V233.311L130.137 233.059L130.629 229.303C130.645 229.183 130.697 229.087 130.785 229.015C130.873 228.935 130.985 228.895 131.121 228.895H132.201V233.083H135.681V234.631H132.201V241.927C132.201 242.439 132.325 242.819 132.573 243.067C132.821 243.315 133.141 243.439 133.533 243.439C133.757 243.439 133.949 243.411 134.109 243.355C134.277 243.291 134.421 243.223 134.541 243.151C134.661 243.079 134.761 243.015 134.841 242.959C134.929 242.895 135.005 242.863 135.069 242.863C135.181 242.863 135.281 242.931 135.369 243.067L135.993 244.087C135.625 244.431 135.181 244.703 134.661 244.903C134.141 245.095 133.605 245.191 133.053 245.191ZM138.802 244.999V234.667L137.458 234.511C137.29 234.471 137.15 234.411 137.038 234.331C136.934 234.243 136.882 234.119 136.882 233.959V233.083H138.802V231.907C138.802 231.211 138.898 230.595 139.09 230.059C139.29 229.515 139.57 229.059 139.93 228.691C140.298 228.315 140.738 228.031 141.25 227.839C141.762 227.647 142.338 227.551 142.978 227.551C143.522 227.551 144.026 227.631 144.49 227.791L144.442 228.859C144.434 229.019 144.366 229.115 144.238 229.147C144.11 229.179 143.93 229.195 143.698 229.195H143.326C142.958 229.195 142.622 229.243 142.318 229.339C142.022 229.435 141.766 229.591 141.55 229.807C141.334 230.023 141.166 230.307 141.046 230.659C140.934 231.011 140.878 231.447 140.878 231.967V233.083H144.394V234.631H140.95V244.999H138.802ZM151.328 232.651C152.216 232.651 153.016 232.799 153.728 233.095C154.448 233.391 155.056 233.811 155.552 234.355C156.056 234.899 156.44 235.559 156.704 236.335C156.976 237.103 157.112 237.963 157.112 238.915C157.112 239.875 156.976 240.739 156.704 241.507C156.44 242.275 156.056 242.931 155.552 243.475C155.056 244.019 154.448 244.439 153.728 244.735C153.016 245.023 152.216 245.167 151.328 245.167C150.44 245.167 149.636 245.023 148.916 244.735C148.204 244.439 147.596 244.019 147.092 243.475C146.588 242.931 146.2 242.275 145.928 241.507C145.656 240.739 145.52 239.875 145.52 238.915C145.52 237.963 145.656 237.103 145.928 236.335C146.2 235.559 146.588 234.899 147.092 234.355C147.596 233.811 148.204 233.391 148.916 233.095C149.636 232.799 150.44 232.651 151.328 232.651ZM151.328 243.499C152.528 243.499 153.424 243.099 154.016 242.299C154.608 241.491 154.904 240.367 154.904 238.927C154.904 237.479 154.608 236.351 154.016 235.543C153.424 234.735 152.528 234.331 151.328 234.331C150.72 234.331 150.192 234.435 149.744 234.643C149.296 234.851 148.92 235.151 148.616 235.543C148.32 235.935 148.096 236.419 147.944 236.995C147.8 237.563 147.728 238.207 147.728 238.927C147.728 239.647 147.8 240.291 147.944 240.859C148.096 241.427 148.32 241.907 148.616 242.299C148.92 242.683 149.296 242.979 149.744 243.187C150.192 243.395 150.72 243.499 151.328 243.499ZM159.744 244.999V232.843H160.968C161.2 232.843 161.36 232.887 161.448 232.975C161.536 233.063 161.596 233.215 161.628 233.431L161.772 235.327C162.188 234.479 162.7 233.819 163.308 233.347C163.924 232.867 164.644 232.627 165.468 232.627C165.804 232.627 166.108 232.667 166.38 232.747C166.652 232.819 166.904 232.923 167.136 233.059L166.86 234.655C166.804 234.855 166.68 234.955 166.488 234.955C166.376 234.955 166.204 234.919 165.972 234.847C165.74 234.767 165.416 234.727 165 234.727C164.256 234.727 163.632 234.943 163.128 235.375C162.632 235.807 162.216 236.435 161.88 237.259V244.999H159.744ZM169.424 244.999V232.843H170.696C171 232.843 171.192 232.991 171.272 233.287L171.428 234.535C171.876 233.983 172.376 233.531 172.928 233.179C173.488 232.827 174.136 232.651 174.872 232.651C175.696 232.651 176.36 232.879 176.864 233.335C177.376 233.791 177.744 234.407 177.968 235.183C178.136 234.743 178.356 234.363 178.628 234.043C178.908 233.723 179.22 233.459 179.564 233.251C179.908 233.043 180.272 232.891 180.656 232.795C181.048 232.699 181.444 232.651 181.844 232.651C182.484 232.651 183.052 232.755 183.548 232.963C184.052 233.163 184.476 233.459 184.82 233.851C185.172 234.243 185.44 234.727 185.624 235.303C185.808 235.871 185.9 236.523 185.9 237.259V244.999H183.764V237.259C183.764 236.307 183.556 235.587 183.14 235.099C182.724 234.603 182.12 234.355 181.328 234.355C180.976 234.355 180.64 234.419 180.32 234.547C180.008 234.667 179.732 234.847 179.492 235.087C179.252 235.327 179.06 235.631 178.916 235.999C178.78 236.359 178.712 236.779 178.712 237.259V244.999H176.576V237.259C176.576 236.283 176.38 235.555 175.988 235.075C175.596 234.595 175.024 234.355 174.272 234.355C173.744 234.355 173.252 234.499 172.796 234.787C172.348 235.067 171.936 235.451 171.56 235.939V244.999H169.424Z" fill="#555555"/>
<g filter="url(#filter0_d_108_90074)">
<rect x="103.219" y="65.8691" width="82.3165" height="82.4245" rx="41.1582" fill="#EAF3FB"/>
<path d="M133.295 104.012C132.844 104.012 132.41 104.081 131.979 104.144C132.118 103.674 132.262 103.195 132.493 102.766C132.724 102.142 133.085 101.601 133.443 101.056C133.743 100.467 134.272 100.067 134.661 99.5629C135.068 99.0727 135.623 98.7465 136.063 98.3393C136.494 97.9138 137.06 97.7011 137.509 97.4013C137.979 97.1318 138.389 96.834 138.826 96.6922L139.918 96.2424L140.879 95.8433L139.896 91.917L138.686 92.2087C138.299 92.306 137.827 92.4194 137.291 92.5552C136.742 92.6565 136.156 92.934 135.504 93.1873C134.859 93.475 134.114 93.6694 133.421 94.1314C132.724 94.573 131.92 94.9417 131.211 95.5333C130.524 96.1431 129.695 96.6719 129.083 97.4478C128.415 98.1731 127.754 98.9349 127.242 99.802C126.648 100.629 126.245 101.536 125.82 102.434C125.435 103.331 125.125 104.249 124.871 105.14C124.391 106.927 124.177 108.625 124.093 110.078C124.025 111.532 124.065 112.742 124.15 113.617C124.181 114.03 124.237 114.431 124.278 114.709L124.329 115.049L124.381 115.037C124.742 116.72 125.571 118.267 126.774 119.499C127.976 120.73 129.503 121.596 131.178 121.996C132.852 122.396 134.605 122.314 136.235 121.759C137.864 121.204 139.303 120.199 140.385 118.861C141.468 117.522 142.149 115.905 142.35 114.195C142.552 112.485 142.265 110.754 141.523 109.2C140.781 107.647 139.615 106.335 138.159 105.417C136.703 104.499 135.017 104.012 133.295 104.012ZM155.581 104.012C155.129 104.012 154.696 104.081 154.264 104.144C154.404 103.674 154.548 103.195 154.779 102.766C155.01 102.142 155.37 101.601 155.729 101.056C156.029 100.467 156.557 100.067 156.946 99.5629C157.354 99.0727 157.909 98.7465 158.348 98.3393C158.78 97.9138 159.345 97.7011 159.795 97.4013C160.265 97.1318 160.674 96.834 161.112 96.6922L162.204 96.2424L163.164 95.8433L162.181 91.917L160.972 92.2087C160.585 92.306 160.113 92.4194 159.576 92.5552C159.027 92.6565 158.442 92.934 157.789 93.1873C157.147 93.477 156.399 93.6694 155.706 94.1334C155.01 94.575 154.205 94.9438 153.496 95.5353C152.809 96.1452 151.981 96.6739 151.369 97.4478C150.7 98.1731 150.04 98.9349 149.527 99.802C148.934 100.629 148.531 101.536 148.105 102.434C147.72 103.331 147.41 104.249 147.157 105.14C146.677 106.927 146.462 108.625 146.379 110.078C146.31 111.532 146.351 112.742 146.436 113.617C146.466 114.03 146.523 114.431 146.563 114.709L146.614 115.049L146.667 115.037C147.027 116.72 147.857 118.267 149.059 119.499C150.262 120.73 151.789 121.596 153.463 121.996C155.137 122.396 156.891 122.314 158.52 121.759C160.15 121.204 161.589 120.199 162.671 118.861C163.753 117.522 164.434 115.905 164.636 114.195C164.837 112.485 164.55 110.754 163.809 109.2C163.067 107.647 161.901 106.335 160.444 105.417C158.988 104.499 157.302 104.012 155.581 104.012Z" fill="#3840A9"/>
</g>
<defs>
<filter id="filter0_d_108_90074" x="25.0748" y="0.749162" width="238.604" height="238.712" filterUnits="userSpaceOnUse" color-interpolation-filters="sRGB">
<feFlood flood-opacity="0" result="BackgroundImageFix"/>
<feColorMatrix in="SourceAlpha" type="matrix" values="0 0 0 0 0 0 0 0 0 0 0 0 0 0 0 0 0 0 127 0" result="hardAlpha"/>
<feOffset dy="13.024"/>
<feGaussianBlur stdDeviation="39.072"/>
<feComposite in2="hardAlpha" operator="out"/>
<feColorMatrix type="matrix" values="0 0 0 0 0 0 0 0 0 0 0 0 0 0 0 0 0 0 0.1 0"/>
<feBlend mode="normal" in2="BackgroundImageFix" result="effect1_dropShadow_108_90074"/>
<feBlend mode="normal" in="SourceGraphic" in2="effect1_dropShadow_108_90074" result="shape"/>
</filter>
</defs>
</svg>
