<svg xmlns="http://www.w3.org/2000/svg" version="1.1" xmlns:xlink="http://www.w3.org/1999/xlink" xmlns:svgjs="http://svgjs.dev/svgjs" width="1500" height="1500" viewBox="0 0 1500 1500"><rect width="1500" height="1500" fill="#ffffff"></rect><g transform="matrix(0.6666666666666666,0,0,0.6666666666666666,249.39393939393938,559.1186478278208)"><svg viewBox="0 0 396 151" data-background-color="#ffffff" preserveAspectRatio="xMidYMid meet" height="571" width="1500" xmlns="http://www.w3.org/2000/svg" xmlns:xlink="http://www.w3.org/1999/xlink"><g id="tight-bounds" transform="matrix(1,0,0,1,0.2400000000000091,0.21738400525146062)"><svg viewBox="0 0 395.52 150.56523198949708" height="150.56523198949708" width="395.52"><g><svg viewBox="0 0 395.52 150.56523198949708" height="150.56523198949708" width="395.52"><g transform="matrix(1,0,0,1,0,93.05535374704077)"><svg viewBox="0 0 395.52 57.509878242456324" height="57.509878242456324" width="395.52"><g id="textblocktransform"><svg viewBox="0 0 395.52 57.509878242456324" height="57.509878242456324" width="395.52" id="textblock"><g><svg viewBox="0 0 395.52 57.509878242456324" height="57.509878242456324" width="395.52"><g transform="matrix(1,0,0,1,0,0)"><svg width="395.52" viewBox="1.2 -39.79 276.69 40.23" height="57.509878242456324" data-palette-color="#0074d9"><path d="M35.21-18.6L31.3-18.6 27.1-15.09 32.15-7.35 35.99-7.35 35.99 0 24.34 0 17.19-10.69 17.19 0 1.2 0 1.2-7.35 5.49-7.35 5.49-29.86 1.2-29.86 1.2-36.5 17.19-38.11 17.19-14.36 22.29-18.6 19.6-18.6 19.6-26.15 35.21-26.15 35.21-18.6ZM47.73 0.44L47.73 0.44Q45.24 0.44 43.21-0.54L43.21-0.54Q41.16-1.49 39.94-3.3 38.72-5.1 38.72-7.5L38.72-7.5Q38.72-10.08 40.16-11.89L40.16-11.89Q41.6-13.65 43.93-14.53 46.26-15.41 48.97-15.41L48.97-15.41Q52.17-15.41 55.12-14.45L55.12-14.45 55.12-15.55Q55.12-17.5 53.48-18.53 51.83-19.56 49.02-19.56L49.02-19.56Q47.82-19.56 46.34-19.26 44.85-18.97 43.43-18.46 42.01-17.94 40.96-17.31L40.96-17.31 40.26-17.6 40.26-24.71Q43.21-25.76 46.29-26.21 49.36-26.66 52.02-26.66L52.02-26.66Q66.87-26.66 66.87-18.31L66.87-18.31 66.87-7.35 69.16-7.35 69.16 0 56.66 0 55.56-4Q54.51-1.95 52.29-0.76 50.07 0.44 47.73 0.44ZM52.32-5.81L52.32-5.81Q53.12-5.81 53.96-6.08 54.81-6.35 55.12-6.64L55.12-6.64 55.12-10.74Q54.76-10.79 53.95-11.04L53.95-11.04Q53.12-11.25 52.51-11.25L52.51-11.25Q51.22-11.25 50.45-10.45 49.68-9.64 49.68-8.3L49.68-8.3Q49.68-7.3 50.4-6.56 51.12-5.81 52.32-5.81ZM83.47 0.44L83.47 0.44Q75.61 0.44 75.61-9.4L75.61-9.4 75.61-18.6 72.46-18.6 72.46-25.2 87.3-26.66 87.3-9.4Q87.3-8.45 88.01-7.65 88.72-6.86 89.67-6.86L89.67-6.86Q90.77-6.86 91.39-7.6 92.01-8.35 92.01-9.45L92.01-9.45 92.01-18.6 89.67-18.6 89.67-25.2 103.71-26.66 103.71-7.35 106.86-7.35 106.86 0 92.01 0 92.01-3.81Q90.72-1.81 88.56-0.68 86.4 0.44 83.47 0.44ZM130.73-7.35L130.73 0 110.44 0 110.44-7.35 114.35-7.35 114.35-18.99 110.44-18.99 110.44-26.15 114.35-26.15 114.35-28.49Q114.35-38.35 123.04-38.35L123.04-38.35Q124.94-38.35 127.14-38 129.34-37.65 130.73-37.21L130.73-37.21 130.73-30Q128.9-30.3 128.19-30.3L128.19-30.3Q126.04-30.3 126.04-27.05L126.04-27.05 126.04-26.15 130.73-26.15 130.73-18.99 126.04-18.99 126.04-7.35 130.73-7.35ZM152.5-7.35L152.5 0 135.29 0 135.29-7.35 138.39-7.35 138.39-29.86 135.29-29.86 135.29-36.5 150.14-38.11 150.14-22.34Q151.09-24.1 153.47-25.38 155.85-26.66 158.75-26.66L158.75-26.66Q163-26.66 165.18-24.16 167.35-21.66 167.35-17.14L167.35-17.14 167.35-7.35 170.45-7.35 170.45 0 155.58 0 155.58-15.94Q155.58-17.41 154.74-18.36 153.9-19.31 152.8-19.31L152.8-19.31Q151.55-19.31 150.84-18.46 150.14-17.6 150.14-16.16L150.14-16.16 150.14-7.35 152.5-7.35ZM187.46 0.44L187.46 0.44Q183.02 0.44 179.72-1.2L179.72-1.2Q176.38-2.81 174.52-5.93 172.67-9.06 172.67-13.35L172.67-13.35Q172.67-17.63 174.52-20.61L174.52-20.61Q176.38-23.61 179.72-25.13 183.07-26.66 187.46-26.66L187.46-26.66Q191.98-26.66 195.31-25.1 198.64-23.54 200.48-20.57 202.31-17.6 202.31-13.35L202.31-13.35Q202.31-9.06 200.48-5.93L200.48-5.93Q198.62-2.81 195.26-1.18 191.91 0.44 187.46 0.44ZM187.46-6.69L187.46-6.69Q189.07-6.69 189.86-8.28L189.86-8.28Q190.61-9.81 190.61-13.35L190.61-13.35Q190.61-16.6 189.87-18.05 189.12-19.51 187.46-19.51L187.46-19.51Q185.88-19.51 185.12-18.05 184.36-16.6 184.36-13.35L184.36-13.35Q184.36-9.89 185.14-8.28L185.14-8.28Q185.93-6.69 187.46-6.69ZM222.42-7.35L226.18-7.35 226.18 0 206.43 0 206.43-7.35 210.73-7.35 210.73-29.86 206.43-29.86 206.43-36.5 222.42-38.11 222.42-7.35ZM239.17-28.71L239.17-28.71Q236.12-28.71 234.14-30.15 232.16-31.59 232.16-34.3L232.16-34.3Q232.16-37.01 234.14-38.4 236.12-39.79 239.22-39.79L239.22-39.79Q242.32-39.79 244.26-38.43 246.2-37.06 246.2-34.3L246.2-34.3Q246.2-31.59 244.21-30.15 242.22-28.71 239.17-28.71ZM245-7.35L248.15-7.35 248.15 0 230.16 0 230.16-7.35 233.31-7.35 233.31-18.6 230.16-18.6 230.16-24.61 245-26.15 245-7.35ZM266.12 0.44L266.12 0.44Q261.65 0.44 258.33-1.27L258.33-1.27Q254.98-2.95 253.13-6.05 251.27-9.16 251.27-13.35L251.27-13.35Q251.27-17.14 252.84-20.17L252.84-20.17Q254.37-23.19 257.24-24.93 260.11-26.66 263.92-26.66L263.92-26.66Q265.36-26.66 266.97-26.31 268.58-25.95 269.87-25.27 271.15-24.58 271.56-23.56L271.56-23.56 272.56-26.15 277.89-26.15 277.89-15.36 270.83-15.36Q270.63-17.31 269.68-18.41 268.73-19.51 267.31-19.51L267.31-19.51Q265.21-19.51 264.12-18.18 263.02-16.85 263.02-13.31L263.02-13.31Q263.02-10.86 263.91-9.46 264.8-8.06 266.23-7.46 267.66-6.86 269.27-6.86L269.27-6.86Q271.02-6.86 273.08-7.48 275.13-8.11 276.71-9.45L276.71-9.45 277.08-9.2 277.08-2.39Q277.08-2.29 275.59-1.56L275.59-1.56Q274.1-0.81 271.64-0.18 269.17 0.44 266.12 0.44Z" opacity="1" transform="matrix(1,0,0,1,0,0)" fill="#000000" class="wordmark-text-0" data-fill-palette-color="primary" id="text-0"></path></svg></g></svg></g></svg></g></svg></g><g transform="matrix(1,0,0,1,161.55255565195074,0)"><svg viewBox="0 0 72.41488869609853 79.47865173107465" height="79.47865173107465" width="72.41488869609853"><g><svg xmlns="http://www.w3.org/2000/svg" xmlns:xlink="http://www.w3.org/1999/xlink" version="1.1" x="0" y="0" viewBox="9.000121550667213 5.000001904463208 82.0011374474439 89.9999980955368" enable-background="new 0 0 100 100" xml:space="preserve" height="79.47865173107465" width="72.41488869609853" class="icon-icon-0" data-fill-palette-color="accent" id="icon-0"><g fill="#001f3f" data-fill-palette-color="accent"><path d="M27.995 18.967C29.722 18.762 30.639 16.839 30.861 14.764L31.327 10.408C31.611 7.751 29.684 5.346 27.044 5.061L26.756 5.028C24.114 4.742 21.72 6.68 21.436 9.336L20.962 13.726C25.773 14.801 24.567 19.382 27.995 18.967" fill="#000000" data-fill-palette-color="accent"></path><path d="M57.004 88.787A3.1 3.1 0 0 0 53.914 91.891 3.1 3.1 0 0 0 57.004 95C58.708 95 60.09 93.609 60.09 91.891A3.096 3.096 0 0 0 57.004 88.787" fill="#000000" data-fill-palette-color="accent"></path><rect x="56.858" y="46.775" width="22.558" height="5.937" fill="#000000" data-fill-palette-color="accent"></rect><path d="M80.666 88.787A3.097 3.097 0 0 0 77.575 91.891 3.1 3.1 0 0 0 80.666 95C82.369 95 83.753 93.609 83.753 91.891A3.1 3.1 0 0 0 80.666 88.787" fill="#000000" data-fill-palette-color="accent"></path><path d="M84.034 73.904L90.884 56.669A1.667 1.667 0 0 0 89.955 54.509 1.5 1.5 0 0 0 89.362 54.384H51.984L50.53 44.595A1.664 1.664 0 0 0 48.879 43.086H45.55L42.058 41.668 31.521 38.61 27.868 20.724C28.01 23.114 24.311 21.933 22.152 19.724 18.655 19.11 17.294 22.576 17.131 24.7 17.105 33.446 16.851 42.353 16.759 51.052L24.258 51.132 16.747 52.318 16.745 52.652 9.743 85.402C8.061 90.652 9.288 92.314 12.889 94.752L22.875 64.087 19.964 54.941 34.55 89.439C36.386 94.642 38.364 95.21 42.696 94.947L30.835 54.146 31.294 43.738C34.862 44.262 38.108 44.704 40.058 44.966L41.743 47.323 45.553 48.438 46.522 46.428H47.449L48.898 56.222 48.92 56.384 53.26 85.629A1.66 1.66 0 0 0 54.904 87.06H82.474C83.392 87.06 84.135 86.312 84.135 85.387 84.135 84.465 83.392 83.717 82.474 83.717H56.333L55.056 75.104H82.445C83.197 75.104 83.83 74.6 84.034 73.904M79.416 71.758V59.396H56.858V71.757H54.903C54.784 71.757 54.671 71.771 54.562 71.794L52.48 57.726H86.897L81.322 71.758z" fill="#000000" data-fill-palette-color="accent"></path></g></svg></g></svg></g><g></g></svg></g><defs></defs></svg><rect width="395.52" height="150.56523198949708" fill="none" stroke="none" visibility="hidden"></rect></g></svg></g></svg>