<svg width="13" height="13" viewBox="0 0 13 13" fill="none" xmlns="http://www.w3.org/2000/svg">
<path d="M5.51641 2.57467C5.91875 1.72706 7.08125 1.72706 7.48359 2.57467L8.17895 4.03955C8.33872 4.37614 8.64755 4.60943 9.00481 4.66341L10.5597 4.89831C11.4593 5.03423 11.8186 6.18374 11.1676 6.84351L10.0425 7.98376C9.78394 8.24576 9.66598 8.62323 9.72701 8.99318L9.99261 10.6032C10.1463 11.5348 9.20581 12.2453 8.40112 11.8054L7.01041 11.0453C6.69087 10.8706 6.30913 10.8706 5.98959 11.0453L4.59888 11.8054C3.7942 12.2453 2.85371 11.5349 3.00739 10.6032L3.27299 8.99318C3.33402 8.62323 3.21606 8.24576 2.95754 7.98376L1.83244 6.84351C1.18143 6.18374 1.54066 5.03423 2.44033 4.89831L3.99519 4.66341C4.35244 4.60943 4.66128 4.37614 4.82105 4.03955L5.51641 2.57467Z" fill="#FFC000"/>
</svg>
