<svg width="22" height="17" viewBox="0 0 22 17" fill="none" xmlns="http://www.w3.org/2000/svg">
<g clip-path="url(#clip0_133_24044)">
<path d="M3.66634 1.82715L18.333 16.0494M12.833 10.9259C12.3465 11.3482 11.704 11.6049 10.9997 11.6049C9.48089 11.6049 8.24967 10.411 8.24967 8.93826C8.24967 8.25528 8.51446 7.63227 8.94991 7.16048M17.9735 12.1451C18.4972 11.7029 18.9657 11.2582 19.3691 10.8466C20.4321 9.76211 20.4321 8.11441 19.3691 7.0299C17.5763 5.20078 14.4972 2.71604 10.9997 2.71604C10.1826 2.71604 9.38833 2.85165 8.62798 3.08283M5.95801 4.31905C4.62099 5.14665 3.48084 6.16207 2.63024 7.0299C1.56726 8.11441 1.56726 9.76211 2.63024 10.8466C4.42304 12.6757 7.50212 15.1605 10.9997 15.1605C12.7121 15.1605 14.3242 14.5649 15.7341 13.7422" stroke="#C4C4C4" stroke-width="1.5" stroke-linecap="round"/>
</g>
<defs>
<clipPath id="clip0_133_24044">
<rect width="22" height="16" fill="white" transform="translate(0 0.938477)"/>
</clipPath>
</defs>
</svg>
