<svg width="24" height="25" viewBox="0 0 24 25" fill="none" xmlns="http://www.w3.org/2000/svg">
<path fill-rule="evenodd" clip-rule="evenodd" d="M14.4522 12.9387C14.479 14.4571 13.2706 15.7102 11.7522 15.7387C10.2334 15.7108 9.02447 14.4575 9.05122 12.9387C9.02446 11.4202 10.2328 10.1671 11.7512 10.1387C13.27 10.1666 14.479 11.4198 14.4522 12.9387Z" stroke="#C4C4C4" stroke-linecap="round" stroke-linejoin="round"/>
<path d="M17.8283 15.6215C17.2601 17.0803 16.2124 18.3024 14.8573 19.0865C13.5308 19.8487 11.9752 20.1105 10.4723 19.8245C8.95631 19.5277 7.59247 18.7084 6.61831 17.5095C4.56696 14.9737 4.45495 11.3822 6.34431 8.72351C7.24122 7.46069 8.55036 6.55009 10.0463 6.14851C11.5246 5.75952 13.0935 5.91424 14.4673 6.58451C15.868 7.27393 16.9903 8.42233 17.6473 9.83851L17.6943 9.93851C18.4083 11.5675 17.8663 14.3385 16.1403 14.3385C15.1876 14.3172 14.4322 13.5282 14.4523 12.5755" stroke="#C4C4C4" stroke-linecap="round" stroke-linejoin="round"/>
</svg>
