<?xml version="1.0" encoding="UTF-8" standalone="no" ?>
<!DOCTYPE svg PUBLIC "-//W3C//DTD SVG 1.1//EN" "http://www.w3.org/Graphics/SVG/1.1/DTD/svg11.dtd">
<svg xmlns="http://www.w3.org/2000/svg" xmlns:xlink="http://www.w3.org/1999/xlink" version="1.1" width="1280" height="1024" viewBox="0 0 1280 1024" xml:space="preserve">
<desc>Created with Fabric.js 5.3.0</desc>
<defs>
</defs>
<g transform="matrix(1 0 0 1 640 512)" id="background-logo"  >
<rect style="stroke: none; stroke-width: 0; stroke-dasharray: none; stroke-linecap: butt; stroke-dashoffset: 0; stroke-linejoin: miter; stroke-miterlimit: 4; fill: rgb(255,255,255); fill-rule: nonzero; opacity: 1;"  paint-order="stroke"  x="-640" y="-512" rx="0" ry="0" width="1280" height="1024" />
</g>
<g transform="matrix(2.1362901240548546 0 0 2.1362901240548546 217.41738764044948 512.4430810171497)" id="logo-logo"  >
<g style=""  paint-order="stroke"   >
		<g transform="matrix(0.13447581263763161 0 0 -0.13447581263763164 0 -16.220252704118934)"  >
<linearGradient id="SVGID_260807" gradientUnits="userSpaceOnUse" gradientTransform="matrix(1 0 0 1 0.0015340988144316725 592.4650000000001)"  x1="0" y1="0" x2="0" y2="657">
<stop offset="0%" style="stop-color:rgb(23,234,217);stop-opacity: 1"/>
<stop offset="100%" style="stop-color:rgb(96,120,234);stop-opacity: 1"/>
</linearGradient>
<path style="stroke: none; stroke-width: 1; stroke-dasharray: none; stroke-linecap: butt; stroke-dashoffset: 0; stroke-linejoin: miter; stroke-miterlimit: 4; fill: url(#SVGID_260807); fill-rule: nonzero; opacity: 1;"  paint-order="stroke"  transform=" translate(-586.6684953077347, -921.2075)" d="M 404.203 895.109 C 406.28099999999995 907.895 418.289 916.75 431.246 916.75 L 1118.06 916.75 C 1138.23 916.75 1156.79 927.742 1166.47 945.43 L 1166.47 945.43 C 1186.6200000000001 982.2149999999999 1160 1027.1499999999999 1118.06 1027.1499999999999 L 367.941 1027.1499999999999 C 353.371 1027.1499999999999 340.313 1036.1499999999999 335.121 1049.7699999999998 L 275.246 1206.9399999999998 C 265.383 1232.84 240.551 1249.9499999999998 212.83999999999997 1249.9499999999998 L 65.0195 1249.9499999999998 C 24.300799999999995 1249.9499999999998 -6.2773400000000095 1216.6499999999999 1.1054699999999968 1176.61 C 6.660159999999997 1146.4799999999998 32.6992 1125.4399999999998 62.375 1125.4399999999998 L 138.64499999999998 1125.4399999999998 C 153.17199999999997 1125.4399999999998 166.195 1116.4999999999998 171.41799999999998 1102.9499999999998 L 359.41 614.961 C 364.63300000000004 601.4060000000001 377.66 592.465 392.184 592.465 L 940.52 592.465 C 960.637 592.465 979.148 603.4340000000001 988.813 621.0740000000001 L 988.813 621.0740000000001 C 1008.91 657.7700000000001 982.359 702.59 940.52 702.59 L 496.777 702.59 C 483.82 702.59 471.813 711.445 469.734 724.23 C 467.082 740.523 479.59 754.605 495.387 754.605 L 1029.33 754.605 C 1049.4499999999998 754.605 1067.96 765.5740000000001 1077.62 783.219 L 1077.62 783.219 C 1097.7199999999998 819.9140000000001 1071.1699999999998 864.734 1029.33 864.734 L 429.855 864.734 C 414.059 864.734 401.555 878.813 404.20300000000003 895.109" stroke-linecap="round" />
</g>
		<g transform="matrix(0.13447581263763161 0 0 -0.13447581263763164 -14.120295885486712 49.26586823634631)"  >
<linearGradient id="SVGID_260808" gradientUnits="userSpaceOnUse" gradientTransform="matrix(1 0 0 1 398.6600000000001 0)"  x1="0" y1="0" x2="0" y2="166">
<stop offset="0%" style="stop-color:rgb(23,234,217);stop-opacity: 1"/>
<stop offset="100%" style="stop-color:rgb(96,120,234);stop-opacity: 1"/>
</linearGradient>
<path style="stroke: none; stroke-width: 1; stroke-dasharray: none; stroke-linecap: butt; stroke-dashoffset: 0; stroke-linejoin: miter; stroke-miterlimit: 4; fill: url(#SVGID_260808); fill-rule: nonzero; opacity: 1;"  paint-order="stroke"  transform=" translate(-481.66600000000005, -83.006)" d="M 481.664 166.012 C 435.82 166.012 398.66 128.84 398.66 83 C 398.66 37.1602 435.82000000000005 0 481.66400000000004 0 C 527.508 0 564.672 37.1602 564.672 83 C 564.672 128.84 527.508 166.012 481.66400000000004 166.012" stroke-linecap="round" />
</g>
		<g transform="matrix(0.13447581263763161 0 0 -0.13447581263763164 40.515209651993416 49.26586823634631)"  >
<linearGradient id="SVGID_260809" gradientUnits="userSpaceOnUse" gradientTransform="matrix(1 0 0 1 804.9449999999999 0)"  x1="0" y1="0" x2="0" y2="166">
<stop offset="0%" style="stop-color:rgb(23,234,217);stop-opacity: 1"/>
<stop offset="100%" style="stop-color:rgb(96,120,234);stop-opacity: 1"/>
</linearGradient>
<path style="stroke: none; stroke-width: 1; stroke-dasharray: none; stroke-linecap: butt; stroke-dashoffset: 0; stroke-linejoin: miter; stroke-miterlimit: 4; fill: url(#SVGID_260809); fill-rule: nonzero; opacity: 1;"  paint-order="stroke"  transform=" translate(-887.951, -83.006)" d="M 887.949 166.012 C 842.1089999999999 166.012 804.9449999999999 128.84 804.9449999999999 83 C 804.9449999999999 37.1602 842.1089999999999 0 887.949 0 C 933.793 0 970.957 37.1602 970.957 83 C 970.957 128.84 933.793 166.012 887.949 166.012" stroke-linecap="round" />
</g>
</g>
</g>
<g transform="matrix(1.9211538461538462 0 0 1.9211538461538462 838.4131484427829 510.60708868311013)" id="text-logo"  >
<g style=""  paint-order="stroke"   >
		<g transform="matrix(1 0 0 1 0 0)" id="text-logo-path-0"  >
<path style="stroke: none; stroke-width: 0; stroke-dasharray: none; stroke-linecap: butt; stroke-dashoffset: 0; stroke-linejoin: miter; stroke-miterlimit: 4; fill: rgb(55,182,255); fill-rule: nonzero; opacity: 1;"  paint-order="stroke"  transform=" translate(-202.71999999999997, 11.2)" d="M 21.28 0 L 27.04 0 L 33.28 -22.4 L 27.84 -22.4 L 23.9 -8.26 L 20.16 -22.4 L 14.72 -22.4 L 10.98 -8.26 L 7.04 -22.4 L 1.6 -22.4 L 7.84 0 L 13.6 0 L 17.44 -13.12 Z M 48.35 0 L 53.79 0 L 53.79 -22.4 L 48.35 -22.4 Z M 78.94 0.32 C 84.29 0.32 87.07 -0.83 88.22 -2.91 C 88.77 -3.97 89.06 -5.31 89.06 -6.98 C 89.06 -11.33 87.04 -13.44 81.38 -13.44 L 78.94 -13.44 C 76.7 -13.44 75.42 -13.44 74.78 -14.08 C 74.5 -14.37 74.34 -14.88 74.34 -15.58 C 74.34 -17.02 74.72 -17.7 76.03 -18.02 C 76.67 -18.18 77.66 -18.24 78.98 -18.24 C 80.86 -18.24 81.82 -18.08 82.46 -17.09 C 82.78 -16.61 82.94 -15.84 82.94 -14.85 L 88.42 -14.85 C 88.42 -20.74 85.22 -22.72 78.98 -22.72 C 73.63 -22.72 70.85 -21.57 69.73 -19.49 C 69.15 -18.43 68.86 -17.09 68.86 -15.42 C 68.86 -11.07 70.88 -8.96 76.54 -8.96 L 78.94 -8.96 C 81.09 -8.96 82.46 -8.83 83.14 -8.19 C 83.42 -7.87 83.58 -7.42 83.58 -6.82 C 83.58 -5.38 83.2 -4.74 81.92 -4.42 C 81.25 -4.26 80.26 -4.16 78.94 -4.16 C 76.64 -4.16 75.49 -4.35 74.85 -5.31 C 74.5 -5.79 74.34 -6.53 74.34 -7.55 L 68.86 -7.55 C 68.86 -3.49 70.43 -1.31 73.38 -0.38 C 74.82 0.1 76.67 0.32 78.94 0.32 Z M 120.13 0 L 125.57 0 L 125.57 -22.4 L 120.13 -22.4 L 120.13 -13.44 L 109.57 -13.44 L 109.57 -22.4 L 104.13 -22.4 L 104.13 0 L 109.57 0 L 109.57 -8.96 L 120.13 -8.96 Z M 140.64 0 L 146.08 0 L 146.08 -22.4 L 140.64 -22.4 Z M 168.19 0 L 173.63 0 L 173.63 -17.92 L 180.67 -17.92 L 180.67 -22.4 L 161.15 -22.4 L 161.15 -17.92 L 168.19 -17.92 Z M 195.74 -8.96 L 204.67 -8.96 L 204.67 -13.44 L 195.74 -13.44 Z M 229.82 0.32 C 235.17 0.32 237.95 -0.83 239.1 -2.91 C 239.65 -3.97 239.94 -5.31 239.94 -6.98 C 239.94 -11.33 237.92 -13.44 232.26 -13.44 L 229.82 -13.44 C 227.58 -13.44 226.3 -13.44 225.66 -14.08 C 225.38 -14.37 225.22 -14.88 225.22 -15.58 C 225.22 -17.02 225.6 -17.7 226.91 -18.02 C 227.55 -18.18 228.54 -18.24 229.86 -18.24 C 231.74 -18.24 232.7 -18.08 233.34 -17.09 C 233.66 -16.61 233.82 -15.84 233.82 -14.85 L 239.3 -14.85 C 239.3 -20.74 236.1 -22.72 229.86 -22.72 C 224.51 -22.72 221.73 -21.57 220.61 -19.49 C 220.03 -18.43 219.74 -17.09 219.74 -15.42 C 219.74 -11.07 221.76 -8.96 227.42 -8.96 L 229.82 -8.96 C 231.97 -8.96 233.34 -8.83 234.02 -8.19 C 234.3 -7.87 234.46 -7.42 234.46 -6.82 C 234.46 -5.38 234.08 -4.74 232.8 -4.42 C 232.13 -4.26 231.14 -4.16 229.82 -4.16 C 227.52 -4.16 226.37 -4.35 225.73 -5.31 C 225.38 -5.79 225.22 -6.53 225.22 -7.55 L 219.74 -7.55 C 219.74 -3.49 221.31 -1.31 224.26 -0.38 C 225.7 0.1 227.55 0.32 229.82 0.32 Z M 271.01 0 L 276.45 0 L 276.45 -22.4 L 271.01 -22.4 L 271.01 -13.44 L 260.45 -13.44 L 260.45 -22.4 L 255.01 -22.4 L 255.01 0 L 260.45 0 L 260.45 -8.96 L 271.01 -8.96 Z M 303.07 0.32 C 310.72 0.32 314.56 -3.39 314.56 -11.23 C 314.56 -18.91 310.98 -22.72 303.07 -22.72 C 295.36 -22.72 291.52 -19.14 291.52 -11.23 C 291.52 -3.52 295.14 0.32 303.07 0.32 Z M 296.96 -11.23 C 296.96 -15.94 298.88 -18.24 303.07 -18.24 C 307.07 -18.24 309.12 -16 309.12 -11.23 C 309.12 -6.5 307.26 -4.16 303.07 -4.16 C 298.98 -4.16 296.96 -6.37 296.96 -11.23 Z M 329.63 0 L 335.07 0 L 335.07 -6.4 L 340.83 -6.4 C 346.18 -6.4 348.74 -8.9 348.74 -14.43 C 348.74 -19.71 346.24 -22.4 340.83 -22.4 L 329.63 -22.4 Z M 340.83 -10.88 L 335.07 -10.88 L 335.07 -17.92 L 340.74 -17.92 C 342.43 -17.92 343.3 -16.83 343.3 -14.4 C 343.3 -12.06 342.46 -10.88 340.83 -10.88 Z M 363.81 0 L 369.25 0 L 369.25 -22.4 L 363.81 -22.4 Z M 391.36 0 L 396.8 0 L 396.8 -17.92 L 403.84 -17.92 L 403.84 -22.4 L 384.32 -22.4 L 384.32 -17.92 L 391.36 -17.92 Z" stroke-linecap="round" />
</g>
</g>
</g>
</svg>